{
   "accessors" : [
      {
         "bufferView" : 0,
         "byteOffset" : 0,
         "componentType" : 5123,
         "count" : 1020,
         "max" : [ 581 ],
         "min" : [ 0 ],
         "name" : "buffer-0-group-0-mesh-0-indices",
         "type" : "SCALAR"
      },
      {
         "bufferView" : 2,
         "byteOffset" : 0,
         "componentType" : 5126,
         "count" : 582,
         "max" : [ 1.072034955024719, 1.400558948516846, 0.9173499941825867 ],
         "min" : [ -1.072034955024719, 0, -2.295028924942017 ],
         "name" : "buffer-0-group-0-mesh-0-position",
         "type" : "VEC3"
      },
      {
         "bufferView" : 2,
         "byteOffset" : 6984,
         "componentType" : 5126,
         "count" : 582,
         "max" : [ 0.9077000021934509, 1, 0.6729999780654907 ],
         "min" : [ -0.9077000021934509, 0, -0.4524999856948853 ],
         "name" : "buffer-0-group-0-mesh-0-normal",
         "type" : "VEC3"
      },
      {
         "bufferView" : 0,
         "byteOffset" : 2040,
         "componentType" : 5123,
         "count" : 4260,
         "max" : [ 2409 ],
         "min" : [ 0 ],
         "name" : "buffer-0-group-1-mesh-0-indices",
         "type" : "SCALAR"
      },
      {
         "bufferView" : 2,
         "byteOffset" : 13968,
         "componentType" : 5126,
         "count" : 2410,
         "max" : [ 1.279193997383118, 1.311012029647827, 3.139111042022705 ],
         "min" : [ -1.279193997383118, 0, -3.297879934310913 ],
         "name" : "buffer-0-group-1-mesh-0-position",
         "type" : "VEC3"
      },
      {
         "bufferView" : 2,
         "byteOffset" : 42888,
         "componentType" : 5126,
         "count" : 2410,
         "max" : [ 1, 1, 1 ],
         "min" : [ -1, -1, -1 ],
         "name" : "buffer-0-group-1-mesh-0-normal",
         "type" : "VEC3"
      },
      {
         "bufferView" : 0,
         "byteOffset" : 10560,
         "componentType" : 5123,
         "count" : 222,
         "max" : [ 105 ],
         "min" : [ 0 ],
         "name" : "buffer-0-group-2-mesh-0-indices",
         "type" : "SCALAR"
      },
      {
         "bufferView" : 2,
         "byteOffset" : 71808,
         "componentType" : 5126,
         "count" : 106,
         "max" : [ 1.106582999229431, 0.7769970297813416, 3.044692039489746 ],
         "min" : [ -1.106582999229431, 0, -3.185070991516113 ],
         "name" : "buffer-0-group-2-mesh-0-position",
         "type" : "VEC3"
      },
      {
         "bufferView" : 2,
         "byteOffset" : 73080,
         "componentType" : 5126,
         "count" : 106,
         "max" : [ 0.8518999814987183, 0.8518999814987183, 0.9988999962806702 ],
         "min" : [ -0.8518999814987183, -0.8518999814987183, -1 ],
         "name" : "buffer-0-group-2-mesh-0-normal",
         "type" : "VEC3"
      },
      {
         "bufferView" : 0,
         "byteOffset" : 11004,
         "componentType" : 5123,
         "count" : 1206,
         "max" : [ 655 ],
         "min" : [ 0 ],
         "name" : "buffer-0-group-3-mesh-0-indices",
         "type" : "SCALAR"
      },
      {
         "bufferView" : 2,
         "byteOffset" : 74352,
         "componentType" : 5126,
         "count" : 656,
         "max" : [ 1.204257011413574, 0.723583996295929, 3.151289939880371 ],
         "min" : [ -1.204257011413574, 0, -3.333690881729126 ],
         "name" : "buffer-0-group-3-mesh-0-position",
         "type" : "VEC3"
      },
      {
         "bufferView" : 2,
         "byteOffset" : 82224,
         "componentType" : 5126,
         "count" : 656,
         "max" : [ 1, 1, 1 ],
         "min" : [ -1, -0.9998000264167786, -0.9987999796867371 ],
         "name" : "buffer-0-group-3-mesh-0-normal",
         "type" : "VEC3"
      },
      {
         "bufferView" : 0,
         "byteOffset" : 13416,
         "componentType" : 5123,
         "count" : 48,
         "max" : [ 23 ],
         "min" : [ 0 ],
         "name" : "buffer-0-group-4-mesh-0-indices",
         "type" : "SCALAR"
      },
      {
         "bufferView" : 2,
         "byteOffset" : 90096,
         "componentType" : 5126,
         "count" : 24,
         "max" : [ 0.952489972114563, 0.7483279705047607, 0 ],
         "min" : [ -0.952489972114563, 0, -3.185070991516113 ],
         "name" : "buffer-0-group-4-mesh-0-position",
         "type" : "VEC3"
      },
      {
         "bufferView" : 2,
         "byteOffset" : 90384,
         "componentType" : 5126,
         "count" : 24,
         "max" : [ 0.424699991941452, 0, 0 ],
         "min" : [ -0.424699991941452, 0, -1 ],
         "name" : "buffer-0-group-4-mesh-0-normal",
         "type" : "VEC3"
      },
      {
         "bufferView" : 0,
         "byteOffset" : 13512,
         "componentType" : 5123,
         "count" : 324,
         "max" : [ 141 ],
         "min" : [ 0 ],
         "name" : "buffer-0-group-5-mesh-0-indices",
         "type" : "SCALAR"
      },
      {
         "bufferView" : 2,
         "byteOffset" : 90672,
         "componentType" : 5126,
         "count" : 142,
         "max" : [ 1.072034955024719, 1.336351037025452, 1.08965802192688 ],
         "min" : [ -1.072034955024719, 0, -2.183345079421997 ],
         "name" : "buffer-0-group-5-mesh-0-position",
         "type" : "VEC3"
      },
      {
         "bufferView" : 2,
         "byteOffset" : 92376,
         "componentType" : 5126,
         "count" : 142,
         "max" : [ 0.9110000133514404, 0.9297000169754028, 0.6140000224113464 ],
         "min" : [ -0.9110000133514404, 0, -0.3799999952316284 ],
         "name" : "buffer-0-group-5-mesh-0-normal",
         "type" : "VEC3"
      },
      {
         "bufferView" : 0,
         "byteOffset" : 14160,
         "componentType" : 5123,
         "count" : 12732,
         "max" : [ 6479 ],
         "min" : [ 0 ],
         "name" : "buffer-0-group-6-mesh-0-indices",
         "type" : "SCALAR"
      },
      {
         "bufferView" : 2,
         "byteOffset" : 94080,
         "componentType" : 5126,
         "count" : 6480,
         "max" : [ 1.223958969116211, 0.4472759962081909, 2.368388891220093 ],
         "min" : [ -1.243852019309998, -0.2875890135765076, -2.032016038894653 ],
         "name" : "buffer-0-group-6-mesh-0-position",
         "type" : "VEC3"
      },
      {
         "bufferView" : 2,
         "byteOffset" : 171840,
         "componentType" : 5126,
         "count" : 6480,
         "max" : [ 1, 0.9993000030517578, 1 ],
         "min" : [ -1, -0.9993000030517578, -0.9998000264167786 ],
         "name" : "buffer-0-group-6-mesh-0-normal",
         "type" : "VEC3"
      },
      {
         "bufferView" : 0,
         "byteOffset" : 39624,
         "componentType" : 5123,
         "count" : 4560,
         "max" : [ 2911 ],
         "min" : [ 0 ],
         "name" : "buffer-0-group-7-mesh-0-indices",
         "type" : "SCALAR"
      },
      {
         "bufferView" : 2,
         "byteOffset" : 249600,
         "componentType" : 5126,
         "count" : 2912,
         "max" : [ 1.214149951934814, 0.410315990447998, 2.33175802230835 ],
         "min" : [ -1.234043002128601, -0.2506299912929535, -1.961894989013672 ],
         "name" : "buffer-0-group-7-mesh-0-position",
         "type" : "VEC3"
      },
      {
         "bufferView" : 2,
         "byteOffset" : 284544,
         "componentType" : 5126,
         "count" : 2912,
         "max" : [ 1, 0.9993000030517578, 0.9611999988555908 ],
         "min" : [ -1, -0.9993000030517578, -0.9611999988555908 ],
         "name" : "buffer-0-group-7-mesh-0-normal",
         "type" : "VEC3"
      },
      {
         "bufferView" : 0,
         "byteOffset" : 48744,
         "componentType" : 5123,
         "count" : 7200,
         "max" : [ 4439 ],
         "min" : [ 0 ],
         "name" : "buffer-0-group-8-mesh-0-indices",
         "type" : "SCALAR"
      },
      {
         "bufferView" : 2,
         "byteOffset" : 319488,
         "componentType" : 5126,
         "count" : 4440,
         "max" : [ 1.20934796333313, 0.5272740125656128, 2.448251962661743 ],
         "min" : [ -1.229241013526917, -0.3675880134105682, -2.078389883041382 ],
         "name" : "buffer-0-group-8-mesh-0-position",
         "type" : "VEC3"
      },
      {
         "bufferView" : 2,
         "byteOffset" : 372768,
         "componentType" : 5126,
         "count" : 4440,
         "max" : [ 0.9994999766349792, 0.9884999990463257, 0.9904000163078308 ],
         "min" : [ -0.9994999766349792, -0.9884999990463257, -0.920199990272522 ],
         "name" : "buffer-0-group-8-mesh-0-normal",
         "type" : "VEC3"
      }
   ],
   "asset" : {
      "generator" : "Obj2GltfConverter",
      "version" : "2.0"
   },
   "bufferViews" : [
      {
         "buffer" : 0,
         "byteLength" : 63144,
         "byteOffset" : 0,
         "byteStride" : 0,
         "name" : "buffer-0-bufferview-ushort",
         "target" : 34963
      },
      {
         "buffer" : 0,
         "byteLength" : 1,
         "byteOffset" : 0,
         "name" : "buffer-0-bufferview-vec2"
      },
      {
         "buffer" : 0,
         "byteLength" : 426048,
         "byteOffset" : 63144,
         "byteStride" : 12,
         "name" : "buffer-0-bufferview-vec3",
         "target" : 34962
      },
      {
         "buffer" : 0,
         "byteLength" : 1,
         "byteOffset" : 0,
         "name" : "buffer-0-bufferview-vec4"
      }
   ],
   "buffers" : [
      {
         "byteLength" : 489192,
         "name" : "buffer-0",
         "uri" : "dodge.bin"
      }
   ],
   "materials" : [
      {
         "alphaMode" : "OPAQUE",
         "doubleSided" : true,
         "name" : "Roof_Black",
         "pbrMetallicRoughness" : {
            "baseColorFactor" : [ 0.142311, 0.152961, 0.161245, 1 ],
            "metallicFactor" : 0,
            "roughnessFactor" : 0.7448017359246658
         }
      },
      {
         "alphaMode" : "OPAQUE",
         "doubleSided" : true,
         "name" : "Red_Chasis",
         "pbrMetallicRoughness" : {
            "baseColorFactor" : [ 0.639282, 0.015506, 0.005596, 1 ],
            "metallicFactor" : 0,
            "roughnessFactor" : 0.7448017359246658
         }
      },
      {
         "alphaMode" : "OPAQUE",
         "doubleSided" : true,
         "name" : "really_Black",
         "pbrMetallicRoughness" : {
            "baseColorFactor" : [ 0, 0, 0, 1 ],
            "metallicFactor" : 0,
            "roughnessFactor" : 0.7448017359246658
         }
      },
      {
         "alphaMode" : "OPAQUE",
         "doubleSided" : true,
         "name" : "Metalic",
         "pbrMetallicRoughness" : {
            "baseColorFactor" : [ 0.392817, 0.43658, 0.483062, 1 ],
            "metallicFactor" : 0,
            "roughnessFactor" : 0.7448017359246658
         }
      },
      {
         "alphaMode" : "OPAQUE",
         "doubleSided" : true,
         "name" : "red_light",
         "pbrMetallicRoughness" : {
            "baseColorFactor" : [ 0.8, 0, 0, 1 ],
            "metallicFactor" : 0,
            "roughnessFactor" : 0.7448017359246658
         }
      },
      {
         "alphaMode" : "OPAQUE",
         "doubleSided" : true,
         "name" : "glass",
         "pbrMetallicRoughness" : {
            "baseColorFactor" : [ 0.8, 0.8, 0.8, 1 ],
            "metallicFactor" : 0,
            "roughnessFactor" : 0.7448017359246658
         }
      },
      {
         "alphaMode" : "OPAQUE",
         "doubleSided" : true,
         "name" : "grey",
         "pbrMetallicRoughness" : {
            "baseColorFactor" : [ 0.421692, 0.421692, 0.421692, 1 ],
            "metallicFactor" : 0,
            "roughnessFactor" : 0.7448017359246658
         }
      },
      {
         "alphaMode" : "OPAQUE",
         "doubleSided" : true,
         "name" : "black",
         "pbrMetallicRoughness" : {
            "baseColorFactor" : [ 0.000695, 0.000202, 0.000825, 1 ],
            "metallicFactor" : 0,
            "roughnessFactor" : 0.7448017359246658
         }
      },
      {
         "alphaMode" : "OPAQUE",
         "doubleSided" : true,
         "name" : "tire",
         "pbrMetallicRoughness" : {
            "baseColorFactor" : [ 0.019326, 0.019326, 0.019326, 1 ],
            "metallicFactor" : 0,
            "roughnessFactor" : 0.7448017359246658
         }
      }
   ],
   "meshes" : [
      {
         "name" : "buffer-0-mesh-0",
         "primitives" : [
            {
               "attributes" : {
                  "NORMAL" : 2,
                  "POSITION" : 1
               },
               "indices" : 0,
               "material" : 0,
               "mode" : 4
            },
            {
               "attributes" : {
                  "NORMAL" : 5,
                  "POSITION" : 4
               },
               "indices" : 3,
               "material" : 1,
               "mode" : 4
            },
            {
               "attributes" : {
                  "NORMAL" : 8,
                  "POSITION" : 7
               },
               "indices" : 6,
               "material" : 2,
               "mode" : 4
            },
            {
               "attributes" : {
                  "NORMAL" : 11,
                  "POSITION" : 10
               },
               "indices" : 9,
               "material" : 3,
               "mode" : 4
            },
            {
               "attributes" : {
                  "NORMAL" : 14,
                  "POSITION" : 13
               },
               "indices" : 12,
               "material" : 4,
               "mode" : 4
            },
            {
               "attributes" : {
                  "NORMAL" : 17,
                  "POSITION" : 16
               },
               "indices" : 15,
               "material" : 5,
               "mode" : 4
            },
            {
               "attributes" : {
                  "NORMAL" : 20,
                  "POSITION" : 19
               },
               "indices" : 18,
               "material" : 6,
               "mode" : 4
            },
            {
               "attributes" : {
                  "NORMAL" : 23,
                  "POSITION" : 22
               },
               "indices" : 21,
               "material" : 7,
               "mode" : 4
            },
            {
               "attributes" : {
                  "NORMAL" : 26,
                  "POSITION" : 25
               },
               "indices" : 24,
               "material" : 8,
               "mode" : 4
            }
         ]
      }
   ],
   "nodes" : [
      {
         "mesh" : 0,
         "name" : "node-0"
      }
   ],
   "scenes" : [
      {
         "name" : "scene-0",
         "nodes" : [ 0 ]
      }
   ]
}
